<svg xmlns="http://www.w3.org/2000/svg" viewBox="0 0 32 32" width="32" height="32" role="img" aria-label="Bak'd On The Bay">
  <rect width="32" height="32" rx="7" fill="#1f7a4d"/>
  <path d="M16 6c-1.6 2-2.4 4.2-2.4 6.6 0 1 .2 2 .5 2.9-1.3-1-2.9-1.7-4.6-2 .9 1.5 2.2 2.7 3.7 3.5-1.5.2-3 .8-4.2 1.8 1.7.5 3.5.5 5.2 0-.9 1.1-1.5 2.4-1.8 3.9 1.4-.7 2.6-1.8 3.4-3.1v6.4h.8v-6.4c.8 1.3 2 2.4 3.4 3.1-.3-1.5-.9-2.8-1.8-3.9 1.7.5 3.5.5 5.2 0-1.2-1-2.7-1.6-4.2-1.8 1.5-.8 2.8-2 3.7-3.5-1.7.3-3.3 1-4.6 2 .3-.9.5-1.9.5-2.9 0-2.4-.8-4.6-2.4-6.6z" fill="#ffffff"/>
</svg>
